<svg xmlns="http://www.w3.org/2000/svg" viewBox="0 0 128 128">
  <!-- Background circle -->
  <circle cx="64" cy="64" r="60" fill="#2874A6"/>
  
  <!-- Water waves -->
  <path d="M 10 80 Q 30 70 50 80 T 90 80 T 130 80 L 130 120 L 10 120 Z" fill="#5DADE2" opacity="0.8"/>
  <path d="M 10 90 Q 30 80 50 90 T 90 90 T 130 90 L 130 120 L 10 120 Z" fill="#85C1E2" opacity="0.6"/>
  
  <!-- Robot body -->
  <rect x="48" y="45" width="32" height="35" rx="4" fill="white"/>
  
  <!-- Robot head -->
  <rect x="52" y="35" width="24" height="12" rx="2" fill="#8FD14F"/>
  
  <!-- Eyes -->
  <circle cx="57" cy="53" r="3" fill="#2874A6"/>
  <circle cx="71" cy="53" r="3" fill="#2874A6"/>
  
  <!-- Gauge display -->
  <rect x="54" y="65" width="20" height="10" rx="2" fill="#34495E"/>
  <rect x="56" y="67" width="8" height="6" rx="1" fill="#E74C3C"/>
  
  <!-- Arms -->
  <rect x="44" y="55" width="4" height="15" rx="2" fill="white"/>
  <rect x="80" y="55" width="4" height="15" rx="2" fill="white"/>
  
  <!-- Life preserver -->
  <path d="M 64 85 m -12 0 a 12 12 0 1 0 24 0 a 12 12 0 1 0 -24 0" 
        fill="none" stroke="#E74C3C" stroke-width="4"/>
  <path d="M 64 85 m -12 0 a 12 12 0 0 0 12 -12" 
        fill="none" stroke="#F4D03F" stroke-width="4"/>
  <path d="M 64 85 m 12 0 a 12 12 0 0 0 -12 -12" 
        fill="none" stroke="#F4D03F" stroke-width="4"/>
</svg>